{"accessors" : [{"bufferView" : 0, "byteOffset" : 0, "componentType" : 5123, "count" : 19188, "type" : "SCALAR", "max" : [16291], "min" : [0]}, {"bufferView" : 1, "byteOffset" : 0, "componentType" : 5126, "count" : 16292, "type" : "VEC3", "max" : [0.8571919798851013, 2.096916913986206, 0.20368200540542603], "min" : [-0.8571919798851013, -0.011385999619960785, -1.0311299562454224], "name" : "POSITION"}, {"bufferView" : 1, "byteOffset" : 12, "componentType" : 5126, "count" : 16292, "type" : "VEC2", "max" : [0.9936519861221313, -0.0087890001013875], "min" : [0.010048000141978264, -0.9925730228424072], "name" : "TEXCOORD_0"}], "asset" : {"generator" : "Aspose.3D 22.1", "version" : "2.0"}, "buffers" : [{"uri" : "data:application/octet-stream;base64,", "byteLength" : 422144}], "bufferViews" : [{"buffer" : 0, "byteOffset" : 0, "byteLength" : 38376, "target" : 34963}, {"buffer" : 0, "byteOffset" : 38380, "byteLength" : 383760, "byteStride" : 20, "target" : 34962}], "meshes" : [{"primitives" : [{"attributes" : {"POSITION" : 1, "TEXCOORD_0" : 2}, "indices" : 0, "mode" : 4}], "name" : ""}], "nodes" : [{"mesh" : 0, "name" : ""}], "scene" : 0, "scenes" : [{"nodes" : [0]}]}